# xmcd
#
# Track frame offsets:
#	150
#	14048
#	26125
#	42663
#	59548
#	74882
#	89212
#	103542
#	130726
#	142991
#	166040
#	177814
#	191302
#	205589
#
# Disc length: 3109 seconds
#
# Revision: 0
# Processed by: cddbd v1.5.2PL0 Copyright (c) Steve Scherf et al.
# Submitted via: dBpowerAMP V4.0
#
DISCID=cd0c230e
DTITLE=Eilen Jewell - Sacred Shakers
DYEAR=2008
DGENRE=Country
TTITLE0=I'm Gonna do my Best
TTITLE1=Jordan is a Hard Road to Travel
TTITLE2=Ready to go Home
TTITLE3=Straighten'em
TTITLE4=John The Relevator
TTITLE5=Twelve Gates to The City
TTITLE6=Taggin Along With Jesus
TTITLE7=Titanic
TTITLE8=Are You Walking and A'talking With The Lord
TTITLE9=Banks of The River
TTITLE10=Travelin Shoes
TTITLE11=Gospel Plow
TTITLE12=Prayer Bells of Heaven
TTITLE13=Green Pastures
EXTD=Gospel Album
EXTT0=
EXTT1=
EXTT2=
EXTT3=
EXTT4=
EXTT5=
EXTT6=
EXTT7=
EXTT8=
EXTT9=
EXTT10=
EXTT11=
EXTT12=
EXTT13=
PLAYORDER=
